<svg width="24" height="22" viewBox="0 0 24 22" fill="none" xmlns="http://www.w3.org/2000/svg">
<path d="M21 8.9375H14.25V2.75C14.25 1.99074 13.5783 1.375 12.75 1.375H11.25C10.4217 1.375 9.75 1.99074 9.75 2.75V8.9375H3C2.17172 8.9375 1.5 9.55324 1.5 10.3125V11.6875C1.5 12.4468 2.17172 13.0625 3 13.0625H9.75V19.25C9.75 20.0093 10.4217 20.625 11.25 20.625H12.75C13.5783 20.625 14.25 20.0093 14.25 19.25V13.0625H21C21.8283 13.0625 22.5 12.4468 22.5 11.6875V10.3125C22.5 9.55324 21.8283 8.9375 21 8.9375Z" fill="black"/>
</svg>
